# AST/ASF file generated using VICON BodyLanguage
# -----------------------------------------------
:version 1.10
:name VICON
:units
  mass 1.0
  length 0.45
  angle deg
:documentation
   .ast/.asf automatically generated from VICON data using
   VICON BodyBuilder and BodyLanguage model FoxedUp or BRILLIANT.MOD
:root
   order TX TY TZ RX RY RZ
   axis XYZ
   position 0 0 0  
   orientation 0 0 0 
:bonedata
  begin
     id 1 
     name lhipjoint
     direction 0.623415 -0.642378 0.445763 
     length 2.49859 
     axis 0 0 0  XYZ
  end
  begin
     id 2 
     name lfemur
     direction 0.34202 -0.939693 0  
     length 6.69689  
     axis 0 0 20  XYZ
    dof rx ry rz
    limits (-160.0 20.0)
           (-70.0 70.0)
           (-60.0 70.0)
  end
  begin
     id 3 
     name ltibia
     direction 0.34202 -0.939693 0   
     length 7.37574   
     axis 0 0 20   XYZ
    dof rx
    limits (-10.0 170.0)
  end
  begin
     id 4 
     name lfoot
     direction 0.084323 -0.231675 0.969132   
     length 2.09111   
     axis -90 7.62852e-016 20   XYZ
    dof rx rz
    limits (-45.0 90.0)
           (-70.0 20.0)
  end
  begin
     id 5 
     name ltoes
     direction 1.5357e-011 -4.21957e-011 1   
     length 1.04989   
     axis -90 7.62852e-016 20   XYZ
    dof rx
    limits (-90.0 20.0)
  end
  begin
     id 6 
     name rhipjoint
     direction -0.605402 -0.653903 0.45376   
     length 2.45455  
     axis 0 0 0  XYZ 
  end
  begin
     id 7 
     name rfemur
     direction -0.34202 -0.939693 0   
     length 6.64523   
     axis 0 0 -20   XYZ
    dof rx ry rz
    limits (-160.0 20.0)
           (-70.0 70.0)
           (-70.0 60.0)
  end
  begin
     id 8 
     name rtibia
     direction -0.34202 -0.939693 0   
     length 7.3339   
     axis 0 0 -20   XYZ
    dof rx
    limits (-10.0 170.0)
 end
 begin
     id 9 
     name rfoot
     direction -0.120854 -0.332043 0.93549   
     length 2.23135  
     axis -90 -7.62852e-016 -20   XYZ
    dof rx rz
    limits (-45.0 90.0)
           (-20.0 70.0)
  end
  begin
     id 10 
     name rtoes
     direction -1.53563e-011 -4.21914e-011 1   
     length 1.10614   
     axis -90 -7.62852e-016 -20   XYZ
    dof rx
    limits (-90.0 20.0)
  end
  begin
     id 11 
     name lowerback
     direction 0.0319682 0.998615 -0.0417941   
     length 2.02718   
     axis 0 0 0   XYZ
    dof rx ry rz
    limits (-20.0 45.0)
           (-30.0 30.0)
           (-30.0 30.0)
  end
  begin
     id 12 
     name upperback
     direction 7.63181e-005 0.995808 0.0914691   
     length 1.97539   
     axis 0 0 0   XYZ
    dof rx ry rz
    limits (-20.0 45.0)
           (-30.0 30.0)
           (-30.0 30.0)
  end
  begin
     id 13 
     name thorax
     direction -0.016423 0.993627 0.111514   
     length 2.00349   
     axis 0 0 0   XYZ
    dof rx ry rz
    limits (-20.0 45.0)
           (-30.0 30.0)
           (-30.0 30.0)
  end
  begin
     id 14 
     name lowerneck
     direction -0.174763 0.981668 -0.0760716   
     length 1.71436   
     axis 0 0 0   XYZ
    dof rx ry rz
    limits (-20.0 45.0)
           (-30.0 30.0)
           (-30.0 30.0)
  end
  begin
     id 15 
     name upperneck
     direction 0.345458 0.934587 -0.0848868   
     length 1.72805   
     axis 0 0 0   XYZ
    dof rx ry rz
    limits (-20.0 45.0)
           (-30.0 30.0)
           (-30.0 30.0)
  end
  begin
     id 16
     name head
     direction 0.13001 0.989848 -0.0574291  
     length 1.767  
     axis 0 0 0   XYZ
    dof rx ry rz
    limits (-20.0 45.0)
           (-30.0 30.0)
           (-30.0 30.0)
  end
  begin
     id 17 
     name lclavicle
     direction 0.952951 0.290122 0.0878234  
     length 3.54654  
     axis 0 0 0   XYZ
    dof ry rz
    limits (-20.0 10.0)
           (0.0 20.0)
  end
  begin
     id 18 
     name lhumerus
     direction 1 -4.48957e-011 -4.56525e-028   
     length 5.19807   
     axis 180 -30 -90   XYZ
    dof rx ry rz
    limits (-60.0 90.0)
           (-90.0 90.0)
           (-90.0 90.0)
  end
  begin
     id 19
     name lradius
     direction 1 -4.48979e-011 -2.0317e-027   
     length 3.0937   
     axis 180 -30 -90   XYZ
    dof rx
    limits (-10.0 170.0)
  end
  begin
     id 20
     name lwrist
     direction 1 -4.48953e-011 -3.05809e-027   
     length 1.54685   
     axis 8.48514e-016 90 90   XYZ
    dof ry
    limits (-180.0 0.0)
 end
  begin
     id 21 
     name lhand
     direction 1 -4.48952e-011 -6.11639e-027   
     length 0.672632   
     axis 3.9013e-015 90 90   XYZ
    dof rx rz
    limits (-90.0 90.0)
           (-45.0 45.0)
  end
  begin
     id 22 
     name lfingers
     direction 1 -4.48925e-011 -1.22426e-026   
     length 0.542293   
     axis 7.80276e-015 90 90   XYZ
    dof rx
    limits (0.0 90.0)
  end
  begin
     id 23
     name lthumb
     direction 0.707107 -6.3486e-011 0.707107   
     length 0.778628   
     axis -90 45 5.37419e-014   XYZ
    dof rx rz
    limits (-45.0 45.0)
           (-45.0 45.0)
  end
  begin
     id 24 
     name rclavicle
     direction -0.960732 0.273675 -0.0457849   
     length 3.52079  
     axis 0 0 0   XYZ 
    dof ry rz
    limits (-10.0 20.0)
           (-20.0 0.0)
  end
  begin
     id 25 
     name rhumerus
     direction -1 -4.48976e-011 -1.63613e-027  
     length 5.45222   
     axis 180 30 90   XYZ
    dof rx ry rz
    limits (-90.0 60.0)
           (-90.0 90.0)
           (-90.0 90.0)
  end
  begin
     id 26 
     name rradius
     direction -1 -4.48957e-011 -7.00033e-028   
     length 3.01284   
     axis 180 30 90   XYZ
    dof rx
    limits (-10.0 170.0)
  end
  begin
     id 27 
     name rwrist
     direction -1 -4.48983e-011 -3.05543e-027   
     length 1.50642   
     axis 8.48514e-016 -90 -90   XYZ
    dof ry
    limits (-180.0 0.0)
  end
  begin
     id 28
     name rhand
     direction -1 -4.48984e-011 -6.11072e-027   
     length 0.622296   
     axis 3.9013e-015 -90 -90   XYZ
    dof rx rz
    limits (-90.0 90.0)
           (-45.0 45.0)
  end
  begin
     id 29
     name rfingers
     direction -1 -4.48865e-011 -1.22637e-026   
     length 0.501711   
     axis 7.80276e-015 -90 -90   XYZ
    dof rx
    limits (0.0 90.0)
  end
  begin
     id 30
     name rthumb
     direction -0.707107 -6.34932e-011 0.707107   
     length 0.72036   
     axis -90 -45 -5.37419e-014   XYZ
    dof rx rz
    limits (-45.0 45.0)
           (-45.0 45.0)
  end
:hierarchy
  begin
    root lhipjoint rhipjoint lowerback
    lhipjoint lfemur
    lfemur ltibia
    ltibia lfoot
    lfoot ltoes
    rhipjoint rfemur
    rfemur rtibia
    rtibia rfoot
    rfoot rtoes
    lowerback upperback
    upperback thorax
    thorax lowerneck lclavicle rclavicle
    lowerneck upperneck
    upperneck head
    lclavicle lhumerus
    lhumerus lradius
    lradius lwrist
    lwrist lhand lthumb
    lhand lfingers
    rclavicle rhumerus
    rhumerus rradius
    rradius rwrist
    rwrist rhand rthumb
    rhand rfingers
  end

#!OML:ASF H:\Not Pregnant\Project 1\Capture day 1\Session 1\non-pregnant.ASF
:FULLY-SPECIFIED
:DEGREES
294
root -9.00933 14.4478 35.3905 193.218 -143.843 -193.742
lowerback 2.76311 1.86208 4.85022
upperback -3.4799 2.78516 1.25908
thorax -4.9929 1.21961 -1.59998
lowerneck 31.8617 -10.6816 -32.6489
upperneck 1.62648 -26.6925 36.0326
head 5.56519 -16.5503 18.1656
rclavicle 3.98253e-014 -6.36111e-015
rhumerus -49.3341 -13.3121 -75.4144
rradius 80.9763
rwrist 1.94975
rhand -18.7531 -11.3567
rfingers 7.12502
rthumb 7.54347 -41.2022
lclavicle 3.98253e-014 -6.36111e-015
lhumerus -55.3033 5.70644 66.21
lradius 97.8586
lwrist 39.8558
lhand -19.5244 -28.8172
lfingers 7.12502
lthumb 6.79894 1.05362
rfemur -39.4917 -0.645435 9.2779
rtibia 38.1479
rfoot 7.68474 5.7773
rtoes -37.0187
lfemur -29.8554 -20.5513 -3.26762
ltibia 65.9471
lfoot -1.51665 -39.7173
ltoes 40.8702
295
root -8.83049 14.4595 35.3811 193.392 -142.743 -193.654
lowerback 2.9486 1.74692 4.67207
upperback -3.52908 2.63792 1.3241
thorax -5.16955 1.14924 -1.43175
lowerneck 31.2846 -10.4425 -32.8665
upperneck 1.86398 -26.2884 35.7167
head 5.52304 -16.2704 18.0784
rclavicle -1.82866e-013 -2.14687e-014
rhumerus -50.6254 -13.8014 -75.5144
rradius 82.1319
rwrist 2.00833
rhand -17.4246 -10.6065
rfingers 7.12502
rthumb 8.8256 -40.402
lclavicle -1.82866e-013 -2.14687e-014
lhumerus -55.6368 6.12092 65.3637
lradius 97.6886
lwrist 38.6133
lhand -18.9207 -29.2904
lfingers 7.12502
lthumb 7.38171 0.560792
rfemur -40.3662 -0.330944 8.82077
rtibia 37.79
rfoot 9.95176 5.45602
rtoes -35.9266
lfemur -30.0005 -20.0227 -4.06078
ltibia 65.6291
lfoot -3.45586 -39.3067
ltoes 39.2636
296
root -8.64874 14.4688 35.3713 193.543 -141.535 -193.553
lowerback 3.16507 1.66673 4.4881
upperback -3.56886 2.53693 1.36405
thorax -5.34963 1.10213 -1.28925
lowerneck 30.6846 -10.2117 -33.0506
upperneck 2.08677 -25.8652 35.3966
head 5.46796 -15.9787 17.9845
rclavicle -8.41729e-015 1.03368e-014
rhumerus -51.827 -14.1847 -75.5306
rradius 83.3728
rwrist 1.58916
rhand -16.1709 -9.83589
rfingers 7.12502
rthumb 10.0353 -39.5766
lclavicle -8.41729e-015 1.03368e-014
lhumerus -56.0462 6.54265 64.3647
lradius 97.6087
lwrist 37.6489
lhand -18.6248 -29.6785
lfingers 7.12502
lthumb 7.66733 0.162461
rfemur -41.2996 -0.141547 8.46881
rtibia 37.5702
rfoot 12.0129 5.13635
rtoes -34.6152
lfemur -30.1134 -19.4841 -4.89694
ltibia 65.3006
lfoot -5.37511 -38.7832
ltoes 37.5945
297
root -8.4647 14.4744 35.3601 193.701 -140.245 -193.491
lowerback 3.40996 1.62353 4.33886
upperback -3.59584 2.48695 1.38387
thorax -5.52728 1.07917 -1.19065
lowerneck 30.0667 -9.99775 -33.192
upperneck 2.29395 -25.4371 35.0905
head 5.4074 -15.6845 17.8887
rclavicle 2.44754e-015 -8.74653e-015
rhumerus -52.8997 -14.4523 -75.4998
rradius 84.6781
rwrist 0.721938
rhand -15.1221 -9.13273
rfingers 7.12502
rthumb 11.047 -38.822
lclavicle 2.44754e-015 -8.74653e-015
lhumerus -56.4979 6.95025 63.2043
lradius 97.6197
lwrist 37.1084
lhand -18.5574 -29.9494
lfingers 7.12502
lthumb 7.73232 -0.110789
rfemur -42.257 -0.107536 8.30961
rtibia 37.5149
rfoot 13.7298 4.94314
rtoes -33.107
lfemur -30.2167 -18.916 -5.71475
ltibia 64.9839
lfoot -7.26825 -38.1522
ltoes 35.8425
298
root -8.27913 14.4763 35.3485 193.841 -138.912 -193.456
lowerback 3.67644 1.60905 4.22943
upperback -3.60321 2.47636 1.37488
thorax -5.69194 1.07435 -1.14722
lowerneck 29.447 -9.80355 -33.2843
upperneck 2.48265 -25.014 34.8129
head 5.34419 -15.3956 17.7969
rclavicle -3.52222e-015 -7.15625e-015
rhumerus -53.7882 -14.6226 -75.4694
rradius 86.0057
rwrist -0.4956
rhand -14.3653 -8.62896
rfingers 7.12502
rthumb 11.7769 -38.2779
lclavicle -3.52222e-015 -7.15625e-015
lhumerus -56.9801 7.33821 61.8702
lradius 97.7325
lwrist 37.088
lhand -18.5918 -30.0794
lfingers 7.12502
lthumb 7.69913 -0.239515
rfemur -43.1719 -0.309007 8.38006
rtibia 37.6587
rfoot 14.908 5.0759
rtoes -31.592
lfemur -30.2997 -18.3419 -6.52814
ltibia 64.6892
lfoot -9.14986 -37.3861
ltoes 34.0619
299
root -8.09243 14.4746 35.3362 193.968 -137.567 -193.472
lowerback 3.96963 1.6168 4.17898
upperback -3.58971 2.49851 1.34303
thorax -5.84528 1.08344 -1.16361
lowerneck 28.841 -9.62221 -33.3423
upperneck 2.65536 -24.602 34.5852
head 5.28536 -15.1188 17.7232
rclavicle -8.17471e-014 1.11319e-014
rhumerus -54.5062 -14.6628 -75.4586
rradius 87.3772
rwrist -1.99089
rhand -13.9861 -8.44516
rfingers 7.12502
rthumb 12.1425 -38.0728
lclavicle -8.17471e-014 1.11319e-014
lhumerus -57.479 7.7007 60.3614
lradius 97.9324
lwrist 37.561
lhand -18.6784 -30.0947
lfingers 7.12502
lthumb 7.61556 -0.251861
rfemur -43.9969 -0.722047 8.70604
rtibia 38.0374
rfoot 15.4389 5.57706
rtoes -30.1491
lfemur -30.3645 -17.7568 -7.30934
ltibia 64.426
lfoot -10.9957 -36.4876
ltoes 32.237
300
root -7.90487 14.4694 35.3229 194.045 -136.232 -193.504
lowerback 4.31116 1.63837 4.15943
upperback -3.56079 2.54186 1.28285
thorax -6.00675 1.10115 -1.23019
lowerneck 28.2692 -9.44875 -33.3777
upperneck 2.82296 -24.2108 34.4176
head 5.23801 -14.8621 17.6754
rclavicle -1.03762e-013 -1.59028e-014
rhumerus -55.0744 -14.5357 -75.4822
rradius 88.7999
rwrist -3.6218
rhand -14.0352 -8.65
rfingers 7.12502
rthumb 12.0951 -38.2804
lclavicle -1.03762e-013 -1.59028e-014
lhumerus -57.9919 8.02707 58.6811
lradius 98.1974
lwrist 38.411
lhand -18.8307 -30.0314
lfingers 7.12502
lthumb 7.46856 -0.183244
rfemur -44.6919 -1.30314 9.23557
rtibia 38.685
rfoot 15.2736 6.33166
rtoes -28.7642
lfemur -30.4039 -17.1765 -8.08546
ltibia 64.1955
lfoot -12.7863 -35.4543
ltoes 30.3737
